<mxfile host="drawio-plugin" modified="2022-11-23T04:19:21.245Z" agent="5.0 (Windows NT 6.2; Win64; x64) AppleWebKit/537.36 (KHTML, like Gecko) Chrome/98.0.4758.102 Safari/537.36" version="20.5.3" etag="ygFVlxgAWn08pDg6ls_R" type="embed"><diagram id="bYyzMMvlOe1KKdNsDrau" name="Page-1"><mxGraphModel dx="882" dy="735" grid="1" gridSize="10" guides="1" tooltips="1" connect="1" arrows="1" fold="1" page="1" pageScale="1" pageWidth="850" pageHeight="1100" math="0" shadow="0"><root><mxCell id="0"/><mxCell id="1" parent="0"/><mxCell id="2" value="MenuView" style="swimlane;fontStyle=1;align=center;verticalAlign=top;childLayout=stackLayout;horizontal=1;startSize=26;horizontalStack=0;resizeParent=1;resizeParentMax=0;resizeLast=0;collapsible=1;marginBottom=0;" vertex="1" parent="1"><mxGeometry x="185" y="340" width="250" height="168" as="geometry"/></mxCell><mxCell id="3" value="-mc: MenuController&#10;-menu: JMenu&#10;-newGame, saveGame, help: JMenuItems" style="text;strokeColor=none;fillColor=none;align=left;verticalAlign=top;spacingLeft=4;spacingRight=4;overflow=hidden;rotatable=0;points=[[0,0.5],[1,0.5]];portConstraint=eastwest;" vertex="1" parent="2"><mxGeometry y="26" width="250" height="84" as="geometry"/></mxCell><mxCell id="4" value="" style="line;strokeWidth=1;fillColor=none;align=left;verticalAlign=middle;spacingTop=-1;spacingLeft=3;spacingRight=3;rotatable=0;labelPosition=right;points=[];portConstraint=eastwest;" vertex="1" parent="2"><mxGeometry y="110" width="250" height="8" as="geometry"/></mxCell><mxCell id="5" value="+MenuVIew(ScrabbleModel)" style="text;strokeColor=none;fillColor=none;align=left;verticalAlign=top;spacingLeft=4;spacingRight=4;overflow=hidden;rotatable=0;points=[[0,0.5],[1,0.5]];portConstraint=eastwest;" vertex="1" parent="2"><mxGeometry y="118" width="250" height="50" as="geometry"/></mxCell><mxCell id="6" value="JMenuBar" style="swimlane;fontStyle=1;align=center;verticalAlign=top;childLayout=stackLayout;horizontal=1;startSize=26;horizontalStack=0;resizeParent=1;resizeParentMax=0;resizeLast=0;collapsible=1;marginBottom=0;" vertex="1" parent="1"><mxGeometry x="200" y="610" width="220" height="34" as="geometry"/></mxCell><mxCell id="7" value="" style="line;strokeWidth=1;fillColor=none;align=left;verticalAlign=middle;spacingTop=-1;spacingLeft=3;spacingRight=3;rotatable=0;labelPosition=right;points=[];portConstraint=eastwest;" vertex="1" parent="6"><mxGeometry y="26" width="220" height="8" as="geometry"/></mxCell><mxCell id="8" value="" style="endArrow=block;endSize=16;endFill=0;html=1;rounded=0;" edge="1" parent="1" source="2" target="6"><mxGeometry width="160" relative="1" as="geometry"><mxPoint x="555" y="400" as="sourcePoint"/><mxPoint x="555" y="254" as="targetPoint"/></mxGeometry></mxCell><mxCell id="9" value="" style="endArrow=diamondThin;endFill=0;endSize=24;html=1;rounded=0;" edge="1" parent="1" source="2" target="6"><mxGeometry width="160" relative="1" as="geometry"><mxPoint x="435" y="453.8888888888889" as="sourcePoint"/><mxPoint x="120" y="550" as="targetPoint"/><Array as="points"><mxPoint x="110" y="440"/><mxPoint x="110" y="630"/><mxPoint x="180" y="630"/></Array></mxGeometry></mxCell><mxCell id="10" value="ScrabbleModel" style="html=1;" vertex="1" parent="1"><mxGeometry x="210" y="90" width="110" height="50" as="geometry"/></mxCell><mxCell id="11" value="See ScrabbleModel UML" style="shape=note;whiteSpace=wrap;html=1;backgroundOutline=1;darkOpacity=0.05;size=9;" vertex="1" parent="1"><mxGeometry x="350" y="40" width="130" height="40" as="geometry"/></mxCell><mxCell id="12" value="" style="endArrow=none;dashed=1;html=1;dashPattern=1 3;strokeWidth=2;rounded=0;entryX=0;entryY=0.5;entryDx=0;entryDy=0;entryPerimeter=0;" edge="1" parent="1" target="11"><mxGeometry width="50" height="50" relative="1" as="geometry"><mxPoint x="285" y="90" as="sourcePoint"/><mxPoint x="335" y="40" as="targetPoint"/><Array as="points"><mxPoint x="305" y="60"/></Array></mxGeometry></mxCell><mxCell id="13" value="MenuController" style="swimlane;fontStyle=1;align=center;verticalAlign=top;childLayout=stackLayout;horizontal=1;startSize=26;horizontalStack=0;resizeParent=1;resizeParentMax=0;resizeLast=0;collapsible=1;marginBottom=0;" vertex="1" parent="1"><mxGeometry x="530" y="320" width="220" height="120" as="geometry"/></mxCell><mxCell id="14" value="-model:ScrabbleModel" style="text;strokeColor=none;fillColor=none;align=left;verticalAlign=top;spacingLeft=4;spacingRight=4;overflow=hidden;rotatable=0;points=[[0,0.5],[1,0.5]];portConstraint=eastwest;" vertex="1" parent="13"><mxGeometry y="26" width="220" height="26" as="geometry"/></mxCell><mxCell id="15" value="" style="line;strokeWidth=1;fillColor=none;align=left;verticalAlign=middle;spacingTop=-1;spacingLeft=3;spacingRight=3;rotatable=0;labelPosition=right;points=[];portConstraint=eastwest;strokeColor=inherit;" vertex="1" parent="13"><mxGeometry y="52" width="220" height="8" as="geometry"/></mxCell><mxCell id="16" value="+MenuController(ScrabbleModel)&#10;+actionPerformed(ActionEvent)&#10;-openRules(String)" style="text;strokeColor=none;fillColor=none;align=left;verticalAlign=top;spacingLeft=4;spacingRight=4;overflow=hidden;rotatable=0;points=[[0,0.5],[1,0.5]];portConstraint=eastwest;" vertex="1" parent="13"><mxGeometry y="60" width="220" height="60" as="geometry"/></mxCell><mxCell id="17" value="" style="endArrow=diamondThin;endFill=0;endSize=24;html=1;rounded=0;exitX=1.004;exitY=0.885;exitDx=0;exitDy=0;exitPerimeter=0;" edge="1" parent="1" source="3" target="16"><mxGeometry width="160" relative="1" as="geometry"><mxPoint x="595" y="490.005" as="sourcePoint"/><mxPoint x="610" y="681.4184615384617" as="targetPoint"/><Array as="points"><mxPoint x="560" y="500"/><mxPoint x="640" y="500"/><mxPoint x="640" y="440"/></Array></mxGeometry></mxCell><mxCell id="18" value="JMenuItem" style="swimlane;fontStyle=1;align=center;verticalAlign=top;childLayout=stackLayout;horizontal=1;startSize=26;horizontalStack=0;resizeParent=1;resizeParentMax=0;resizeLast=0;collapsible=1;marginBottom=0;" vertex="1" parent="1"><mxGeometry x="200" y="680" width="220" height="34" as="geometry"/></mxCell><mxCell id="19" value="" style="line;strokeWidth=1;fillColor=none;align=left;verticalAlign=middle;spacingTop=-1;spacingLeft=3;spacingRight=3;rotatable=0;labelPosition=right;points=[];portConstraint=eastwest;" vertex="1" parent="18"><mxGeometry y="26" width="220" height="8" as="geometry"/></mxCell><mxCell id="20" value="" style="endArrow=diamondThin;endFill=0;endSize=24;html=1;rounded=0;entryX=0;entryY=0.5;entryDx=0;entryDy=0;" edge="1" parent="1" target="18"><mxGeometry width="160" relative="1" as="geometry"><mxPoint x="110" y="662" as="sourcePoint"/><mxPoint x="180" y="710" as="targetPoint"/><Array as="points"><mxPoint x="110" y="630"/><mxPoint x="110" y="662"/><mxPoint x="110" y="700"/></Array></mxGeometry></mxCell><mxCell id="21" value="" style="endArrow=block;dashed=1;endFill=0;endSize=12;html=1;rounded=0;exitX=0.5;exitY=0;exitDx=0;exitDy=0;entryX=0.414;entryY=0.958;entryDx=0;entryDy=0;entryPerimeter=0;" edge="1" parent="1" source="13" target="23"><mxGeometry width="160" relative="1" as="geometry"><mxPoint x="500" y="280" as="sourcePoint"/><mxPoint x="610" y="270" as="targetPoint"/></mxGeometry></mxCell><mxCell id="22" value="&lt;&lt;interface&gt;&gt;&#10;ActionListener" style="swimlane;fontStyle=1;childLayout=stackLayout;horizontal=1;startSize=30;fillColor=none;horizontalStack=0;resizeParent=1;resizeParentMax=0;resizeLast=0;collapsible=1;marginBottom=0;" vertex="1" parent="1"><mxGeometry x="550" y="210" width="220" height="54" as="geometry"/></mxCell><mxCell id="23" value="+actionPerformed(ActionEvent)" style="text;strokeColor=none;fillColor=none;align=left;verticalAlign=top;spacingLeft=4;spacingRight=4;overflow=hidden;rotatable=0;points=[[0,0.5],[1,0.5]];portConstraint=eastwest;fontStyle=0" vertex="1" parent="22"><mxGeometry y="30" width="220" height="24" as="geometry"/></mxCell><mxCell id="24" value="" style="endArrow=diamondThin;endFill=0;endSize=24;html=1;rounded=0;exitX=0;exitY=0.5;exitDx=0;exitDy=0;entryX=0.655;entryY=1.02;entryDx=0;entryDy=0;entryPerimeter=0;" edge="1" parent="1" source="14" target="10"><mxGeometry width="160" relative="1" as="geometry"><mxPoint x="300" y="310" as="sourcePoint"/><mxPoint x="460" y="290" as="targetPoint"/></mxGeometry></mxCell></root></mxGraphModel></diagram></mxfile>